<svg width="35" height="35" viewBox="0 0 35 35" fill="none" xmlns="http://www.w3.org/2000/svg">
<path d="M17.4825 0C7.8225 0 0 7.84 0 17.5C0 27.16 7.8225 35 17.4825 35C27.16 35 35 27.16 35 17.5C35 7.84 27.16 0 17.4825 0ZM24.5 24.5C24.3381 24.6622 24.1458 24.7909 23.9341 24.8788C23.7224 24.9666 23.4954 25.0118 23.2663 25.0118C23.0371 25.0118 22.8101 24.9666 22.5984 24.8788C22.3867 24.7909 22.1944 24.6622 22.0325 24.5L16.275 18.7425C16.1096 18.5804 15.9781 18.3871 15.888 18.1739C15.7979 17.9606 15.751 17.7315 15.75 17.5V10.5C15.75 9.5375 16.5375 8.75 17.5 8.75C18.4625 8.75 19.25 9.5375 19.25 10.5V16.7825L24.5 22.0325C25.1825 22.715 25.1825 23.8175 24.5 24.5Z" fill="#FFFDFD" fill-opacity="0.68"/>
</svg>
