<svg width="37" height="35" viewBox="0 0 37 35" fill="none" xmlns="http://www.w3.org/2000/svg">
<path d="M34.5725 4.6125L32.2275 3.6325V19.435L36.48 9.18C37.1975 7.395 36.375 5.3475 34.5725 4.6125ZM0.44748 11.0875L9.12747 32C9.38307 32.6363 9.81907 33.184 10.3818 33.5757C10.9446 33.9675 11.6096 34.1862 12.295 34.205C12.75 34.205 13.2225 34.1175 13.6775 33.925L26.575 28.5875C27.8875 28.045 28.6925 26.75 28.7275 25.455C28.745 25 28.6575 24.4925 28.5 24.0375L19.75 3.125C19.5027 2.48453 19.0683 1.93336 18.5033 1.5432C17.9384 1.15305 17.2691 0.94199 16.5825 0.9375C16.1275 0.9375 15.6725 1.0425 15.235 1.2L2.35498 6.5375C1.49882 6.8881 0.81693 7.5644 0.45923 8.4176C0.10153 9.2708 0.0973 10.2312 0.44748 11.0875ZM28.71 4.4375C28.71 3.50924 28.3413 2.619 27.6849 1.96263C27.0285 1.30625 26.1383 0.9375 25.21 0.9375H22.6725L28.71 15.5325" fill="white" fill-opacity="0.71"/>
</svg>
